# xmcd
#
# Track frame offsets:
#	187
#	1265
#	15105
#	17357
#	19592
#	21130
#	23840
#	24647
#	25517
#	25847
#	27110
#	30567
#	31005
#	32150
#	42295
#	43937
#	44895
#	45247
#	46512
#	49250
#	51227
#	56097
#	57877
#	58975
#	66355
#	75577
#	78667
#	86200
#	88972
#	92232
#	94857
#	99957
#	108962
#	120852
#	128890
#	130937
#	132147
#	136390
#	137490
#	139165
#	149762
#	154652
#	155855
#	160865
#	163840
#	168932
#	189325
#	192697
#	194852
#	209347
#	211680
#	214522
#	222082
#	235375
#	239012
#
# Disc length: 3365 seconds
#
# Revision: 1
# Processed by: cddbd v1.5.1PL0 Copyright (c) Steve Scherf et al.
# Submitted via: CDex 1.50Beta5
#
DISCID=fa0d2337
DTITLE=スネイクマン・ショー・アンファン - シャシの耳 Disc 1
DYEAR=1997
DGENRE=その他(邦楽)
TTITLE0=街の声
TTITLE1=GALAPAGOS
TTITLE2=走る車
TTITLE3=ここは渋谷
TTITLE4=遠いよ埼玉
TTITLE5=ねえ
TTITLE6=欲望は運命の
TTITLE7=かくせ
TTITLE8=ゴミ袋に
TTITLE9=とにかくさあ
TTITLE10=あ、あ、あの
TTITLE11=ナタとかのこぎり
TTITLE12=カズヤが
TTITLE13=走る車
TTITLE14=真夜中
TTITLE15=その件は
TTITLE16=急ブレーキ
TTITLE17=やったか
TTITLE18=犠牲者か
TTITLE19=この携帯…
TTITLE20=ドアをたたく音
TTITLE21=出血がひどい
TTITLE22=肉体は
TTITLE23=脳波がまだ
TTITLE24=嫌いです
TTITLE25=先生、手術の具合
TTITLE26=あのー
TTITLE27=自分をせめている
TTITLE28=実はね
TTITLE29=NA日本人は
TTITLE30=私、知ってるのよ
TTITLE31=一億円
TTITLE32=切っちゃいましょう
TTITLE33=署名ですか
TTITLE34=シュガーウォーターですか
TTITLE35=残された
TTITLE36=もういっぱつかけてみっか
TTITLE37=はい、松尾です
TTITLE38=電話がかかる
TTITLE39=どうも、こんばんは
TTITLE40=ムラタカズヤと
TTITLE41=な、何だこの音は
TTITLE42=あのジョージさんですね
TTITLE43=デッドマンジョージのテーマガ
TTITLE44=デッドマンジョージ
TTITLE45=病室である
TTITLE46=タクシーのラジオから
TTITLE47=いらっしゃい…あれ?
TTITLE48=いまあなた私を
TTITLE49=はい…何時だと
TTITLE50=マリの脱走劇から
TTITLE51=あれうそ鍵がかかってるよ
TTITLE52=金だよ
TTITLE53=コント・ムース
TTITLE54=ダレボクレ
EXTD=
EXTT0=
EXTT1=
EXTT2=
EXTT3=
EXTT4=
EXTT5=
EXTT6=
EXTT7=
EXTT8=
EXTT9=
EXTT10=
EXTT11=
EXTT12=
EXTT13=
EXTT14=
EXTT15=
EXTT16=
EXTT17=
EXTT18=
EXTT19=
EXTT20=
EXTT21=
EXTT22=
EXTT23=
EXTT24=
EXTT25=
EXTT26=
EXTT27=
EXTT28=
EXTT29=
EXTT30=
EXTT31=
EXTT32=
EXTT33=
EXTT34=
EXTT35=
EXTT36=
EXTT37=
EXTT38=
EXTT39=
EXTT40=
EXTT41=
EXTT42=
EXTT43=
EXTT44=
EXTT45=
EXTT46=
EXTT47=
EXTT48=
EXTT49=
EXTT50=
EXTT51=
EXTT52=
EXTT53=
EXTT54=
PLAYORDER=
